<?xml version="1.0" encoding="UTF-8"?>
<svg xmlns="http://www.w3.org/2000/svg" xmlns:xlink="http://www.w3.org/1999/xlink" width="192px" height="192px" viewBox="0 0 192 192" version="1.1">
<g id="surface1">
<path style=" stroke:none;fill-rule:nonzero;fill:rgb(97.254902%,38.431373%,31.372549%);fill-opacity:1;" d="M 86.988281 83.316406 C 87.445312 81.699219 88.753906 80.898438 89.914062 81.535156 L 105.257812 89.9375 C 106.417969 90.574219 106.988281 92.402344 106.535156 94.023438 C 106.1875 95.265625 105.332031 96.023438 104.433594 96.023438 C 104.160156 96.023438 103.882812 95.953125 103.613281 95.804688 L 88.269531 87.402344 C 87.105469 86.765625 86.535156 84.9375 86.988281 83.316406 Z M 168.632812 121.824219 C 168.789062 129.832031 166.136719 131.46875 162.125 133.953125 C 161.667969 134.230469 161.1875 134.53125 160.675781 134.859375 C 155.050781 138.449219 146.574219 141.273438 136.164062 143.019531 C 125.328125 144.839844 112.152344 146.058594 111.546875 146.113281 L 108.039062 146.550781 C 107.578125 146.605469 107.121094 146.398438 106.773438 145.976562 C 106.597656 145.765625 106.460938 145.507812 106.363281 145.222656 L 104.332031 146.46875 C 104.117188 146.601562 103.882812 146.667969 103.652344 146.667969 C 103.339844 146.667969 103.03125 146.550781 102.757812 146.3125 C 102.433594 146.03125 102.191406 145.609375 102.0625 145.125 L 99.390625 146.332031 C 98.886719 146.5625 98.339844 146.449219 97.90625 146.03125 C 97.628906 145.765625 97.421875 145.394531 97.296875 144.972656 L 94.476562 146.324219 C 93.957031 146.570312 93.390625 146.457031 92.945312 146.015625 C 92.652344 145.71875 92.4375 145.308594 92.324219 144.84375 L 89.929688 145.996094 C 89.433594 146.230469 88.886719 146.136719 88.449219 145.734375 C 88.011719 145.332031 87.730469 144.664062 87.691406 143.933594 L 87.683594 143.730469 L 83.96875 144.941406 C 83.738281 145.019531 83.496094 145.023438 83.261719 144.960938 L 80.484375 144.207031 C 80.441406 144.929688 80.164062 145.589844 79.730469 145.988281 C 79.273438 146.410156 78.703125 146.496094 78.191406 146.222656 L 76.082031 145.09375 C 75.957031 145.433594 75.769531 145.730469 75.539062 145.957031 C 75.085938 146.398438 74.503906 146.5 73.984375 146.230469 L 71.101562 144.738281 C 70.984375 145.089844 70.800781 145.402344 70.566406 145.636719 C 70.144531 146.0625 69.613281 146.191406 69.113281 145.996094 L 66.453125 144.941406 C 66.34375 145.261719 66.183594 145.550781 65.976562 145.773438 C 65.546875 146.246094 64.980469 146.398438 64.457031 146.1875 L 61.535156 145.003906 C 61.410156 145.316406 61.238281 145.59375 61.023438 145.804688 C 60.574219 146.238281 60.003906 146.351562 59.492188 146.09375 L 56.644531 144.699219 C 56.527344 144.929688 56.378906 145.128906 56.203125 145.289062 C 55.765625 145.695312 55.214844 145.792969 54.71875 145.554688 L 52.300781 144.394531 C 52.191406 144.613281 52.054688 144.804688 51.898438 144.964844 C 51.476562 145.378906 50.941406 145.503906 50.445312 145.300781 L 47.421875 144.066406 C 47.398438 144.09375 47.371094 144.125 47.34375 144.152344 C 46.90625 144.59375 46.347656 144.722656 45.832031 144.496094 L 43.226562 143.347656 C 43.191406 143.390625 43.152344 143.433594 43.113281 143.472656 C 42.675781 143.917969 42.109375 144.039062 41.59375 143.804688 L 38.714844 142.484375 C 38.640625 142.574219 38.566406 142.660156 38.484375 142.738281 C 38.046875 143.140625 37.507812 143.242188 37.011719 143.011719 L 25.820312 137.800781 C 25.003906 137.417969 24.523438 136.246094 24.699219 135.074219 L 26.511719 122.886719 C 25.164062 119.886719 21.644531 110.101562 24.710938 94.929688 C 25.0625 93.1875 25.402344 91.488281 25.730469 89.839844 C 28.941406 73.75 30.878906 64.035156 34.691406 62.4375 C 36.828125 61.542969 39.757812 62.625 40.957031 65.988281 C 43.5625 73.257812 46.800781 82.300781 52.519531 84.25 C 55.464844 85.253906 58.960938 84.289062 62.945312 81.382812 C 62.152344 80.910156 61.242188 80.328125 60.296875 79.644531 C 56.367188 76.78125 53.878906 73.601562 52.90625 70.191406 C 52.167969 67.609375 52.308594 64.894531 53.308594 62.339844 C 57.183594 52.472656 61.816406 47.890625 62.644531 47.125 C 62.847656 46.894531 63.226562 46.496094 63.722656 46.191406 C 64.816406 45.519531 65.941406 45.601562 66.882812 46.425781 C 67.363281 46.84375 72.234375 50.984375 80.601562 58.085938 C 84.097656 61.054688 87.398438 63.855469 89.292969 65.464844 C 89.375 64.601562 89.789062 63.835938 90.417969 63.53125 C 91.300781 63.105469 92.265625 63.761719 92.570312 64.992188 L 93.363281 68.207031 C 94.328125 68.730469 95.253906 69.339844 96.144531 69.992188 C 96.34375 69.542969 96.652344 69.179688 97.035156 68.996094 C 97.917969 68.570312 98.882812 69.222656 99.1875 70.457031 L 99.804688 72.941406 C 99.839844 72.972656 99.875 73.003906 99.914062 73.035156 C 100.871094 73.847656 101.785156 74.617188 102.707031 75.332031 C 102.832031 74.5625 103.230469 73.894531 103.804688 73.617188 C 104.691406 73.191406 105.652344 73.84375 105.957031 75.078125 L 106.734375 78.21875 C 107.4375 78.703125 108.191406 79.214844 108.984375 79.75 C 108.949219 78.726562 109.394531 77.75 110.121094 77.398438 C 111.007812 76.972656 111.972656 77.625 112.277344 78.863281 L 113.179688 82.503906 C 114.042969 83.066406 114.9375 83.636719 115.851562 84.214844 C 115.722656 83.097656 116.175781 81.980469 116.96875 81.601562 C 117.851562 81.175781 118.816406 81.828125 119.117188 83.0625 L 120.050781 86.824219 C 121.167969 87.511719 122.308594 88.199219 123.457031 88.878906 C 123.628906 88.25 123.992188 87.722656 124.488281 87.484375 C 125.371094 87.058594 126.335938 87.710938 126.640625 88.945312 L 127.15625 91.039062 C 136.125 96.179688 145.125 100.621094 150.113281 101.308594 C 161.273438 102.84375 165 108.296875 165.390625 108.910156 L 165.386719 108.917969 C 165.574219 109.203125 165.75 109.523438 165.914062 109.882812 C 166.078125 109.980469 166.242188 110.097656 166.40625 110.242188 C 168.441406 112.085938 168.527344 116.382812 168.632812 121.824219 Z M 78.816406 73.519531 C 80.832031 76.941406 83.273438 81.808594 83.5 85.585938 C 83.625 87.667969 85.4375 88.644531 89.03125 90.890625 C 91 92.121094 94.90625 94.484375 96.027344 95.089844 C 101.519531 98.054688 104.132812 100.007812 107.496094 98.441406 C 112.632812 96.050781 115.367188 95.363281 119.960938 98.816406 C 121.199219 99.746094 122.136719 100.84375 122.960938 101.8125 C 124.972656 104.164062 126.296875 105.714844 131.117188 104.132812 C 134.023438 103.179688 137.582031 102.984375 141.191406 103.28125 C 137.347656 101.636719 133.007812 99.414062 128.625 96.972656 L 129.019531 98.554688 C 129.324219 99.789062 128.855469 101.136719 127.972656 101.5625 C 127.789062 101.648438 127.601562 101.691406 127.417969 101.691406 C 126.71875 101.691406 126.0625 101.078125 125.820312 100.097656 L 124.457031 94.59375 C 123.480469 94.019531 122.503906 93.445312 121.539062 92.867188 C 121.753906 94.042969 121.289062 95.273438 120.449219 95.675781 C 120.269531 95.765625 120.082031 95.804688 119.898438 95.804688 C 119.195312 95.804688 118.539062 95.191406 118.296875 94.214844 L 117.332031 90.304688 C 116.429688 89.746094 115.550781 89.195312 114.691406 88.652344 C 114.90625 89.832031 114.445312 91.066406 113.605469 91.472656 C 113.421875 91.5625 113.234375 91.605469 113.054688 91.605469 C 112.351562 91.605469 111.695312 90.988281 111.453125 90.011719 L 110.441406 85.921875 C 109.695312 85.433594 108.976562 84.960938 108.292969 84.503906 L 108.335938 84.6875 C 108.640625 85.917969 108.171875 87.265625 107.289062 87.691406 C 107.105469 87.78125 106.921875 87.820312 106.738281 87.820312 C 106.035156 87.820312 105.378906 87.207031 105.136719 86.230469 L 103.988281 81.582031 C 103.097656 80.960938 102.34375 80.421875 101.757812 79.992188 C 101.671875 79.929688 101.585938 79.863281 101.5 79.796875 L 101.566406 80.0625 C 101.871094 81.296875 101.402344 82.640625 100.519531 83.066406 C 100.335938 83.15625 100.148438 83.199219 99.964844 83.199219 C 99.265625 83.199219 98.609375 82.582031 98.367188 81.605469 L 97.007812 76.105469 C 96.308594 75.523438 95.613281 74.957031 94.902344 74.425781 L 94.945312 74.597656 C 95.25 75.832031 94.785156 77.179688 93.902344 77.605469 C 93.71875 77.691406 93.53125 77.734375 93.347656 77.734375 C 92.648438 77.734375 91.992188 77.121094 91.746094 76.140625 L 90.710938 71.945312 C 87.449219 70.621094 83.710938 70.628906 78.816406 73.519531 Z M 96.289062 99.863281 L 90.316406 96.417969 L 90.316406 96.4375 L 89.207031 96.480469 L 89.238281 98.035156 L 88.125 98.074219 L 88.15625 99.625 L 87.042969 99.671875 L 87.074219 101.222656 L 85.964844 101.265625 L 85.992188 102.816406 L 84.882812 102.859375 L 84.914062 104.410156 L 83.800781 104.453125 L 83.832031 106.007812 L 82.722656 106.046875 L 82.75 107.601562 L 81.640625 107.644531 L 81.671875 109.195312 L 80.558594 109.238281 L 80.589844 110.789062 L 79.476562 110.832031 L 79.507812 112.386719 L 78.398438 112.429688 L 78.425781 113.984375 L 77.316406 114.027344 L 77.347656 115.578125 L 76.234375 115.621094 L 76.265625 117.175781 L 75.15625 117.214844 L 75.1875 118.769531 L 74.074219 118.8125 L 74.105469 120.363281 L 72.996094 120.40625 L 73.023438 121.960938 L 71.914062 122.003906 L 71.945312 123.558594 L 70.832031 123.597656 L 70.863281 125.152344 L 69.75 125.195312 L 69.761719 125.71875 C 71.6875 125.933594 73.605469 126.167969 75.484375 126.449219 L 77.914062 126.925781 L 77.902344 126.394531 L 79.015625 126.351562 L 78.984375 124.796875 L 80.097656 124.757812 L 80.066406 123.203125 L 81.175781 123.160156 L 81.144531 121.609375 L 82.257812 121.5625 L 82.226562 120.011719 L 83.335938 119.96875 L 83.308594 118.417969 L 84.417969 118.371094 L 84.386719 116.820312 L 85.5 116.777344 L 85.46875 115.226562 L 86.582031 115.183594 L 86.550781 113.628906 L 87.660156 113.585938 L 87.628906 112.03125 L 88.742188 111.988281 L 88.710938 110.4375 L 89.824219 110.394531 L 89.792969 108.839844 L 90.902344 108.796875 L 90.871094 107.246094 L 91.984375 107.203125 L 91.953125 105.652344 L 93.0625 105.609375 L 93.035156 104.054688 L 94.148438 104.015625 L 94.117188 102.460938 L 95.226562 102.417969 L 95.195312 100.867188 L 96.308594 100.824219 Z M 80.996094 67.46875 C 82.074219 67.050781 83.105469 66.761719 84.089844 66.582031 C 83.582031 66.152344 83.050781 65.699219 82.5 65.234375 C 82.035156 65.890625 81.53125 66.640625 80.996094 67.46875 Z M 79.480469 62.667969 C 77.9375 64.875 75.972656 68.050781 73.960938 71.589844 C 75.046875 70.761719 76.089844 70.039062 77.089844 69.425781 C 78.414062 67.207031 79.648438 65.265625 80.71875 63.71875 C 80.3125 63.375 79.898438 63.023438 79.480469 62.667969 Z M 76.460938 60.105469 C 74.636719 62.738281 72.28125 66.617188 69.929688 70.886719 C 68.570312 73.355469 67.285156 75.820312 66.179688 78.082031 C 66.332031 78.160156 66.476562 78.226562 66.609375 78.285156 C 67.023438 77.894531 67.441406 77.484375 67.863281 77.054688 C 68.289062 76.625 68.703125 76.214844 69.117188 75.816406 C 69.785156 74.535156 70.480469 73.230469 71.207031 71.914062 C 73.542969 67.671875 75.851562 63.855469 77.703125 61.160156 C 77.289062 60.808594 76.878906 60.457031 76.460938 60.105469 Z M 55.941406 68.015625 C 57.050781 65.765625 58.320312 63.332031 59.660156 60.898438 C 61.753906 57.097656 63.871094 53.5625 65.640625 50.90625 C 65.414062 50.714844 65.246094 50.570312 65.144531 50.484375 C 65.03125 50.535156 64.855469 50.695312 64.824219 50.742188 C 64.742188 50.847656 64.652344 50.945312 64.558594 51.027344 C 64.519531 51.0625 60 55.125 56.277344 64.613281 C 55.8125 65.796875 55.703125 66.886719 55.941406 68.015625 Z M 58.171875 72.128906 C 59.414062 69.519531 60.925781 66.59375 62.546875 63.652344 C 64.710938 59.726562 66.863281 56.140625 68.652344 53.472656 C 68.207031 53.09375 67.792969 52.738281 67.414062 52.414062 C 65.636719 55.039062 63.441406 58.683594 61.269531 62.628906 C 59.734375 65.414062 58.292969 68.203125 57.09375 70.691406 C 57.410156 71.183594 57.773438 71.664062 58.171875 72.128906 Z M 61.066406 74.855469 C 62.3125 72.253906 63.816406 69.335938 65.433594 66.402344 C 67.648438 62.382812 69.855469 58.71875 71.667969 56.03125 C 71.246094 55.671875 70.828125 55.320312 70.429688 54.980469 C 68.632812 57.609375 66.40625 61.296875 64.15625 65.378906 C 62.542969 68.3125 61.042969 71.222656 59.8125 73.800781 C 60.21875 74.167969 60.640625 74.519531 61.066406 74.855469 Z M 64.238281 77.023438 C 65.425781 74.570312 66.828125 71.863281 68.320312 69.15625 C 70.578125 65.058594 72.851562 61.292969 74.6875 58.597656 C 74.269531 58.242188 73.855469 57.890625 73.445312 57.542969 C 71.628906 60.183594 69.34375 63.957031 67.042969 68.132812 C 65.507812 70.921875 64.078125 73.6875 62.882812 76.167969 C 63.347656 76.476562 63.804688 76.765625 64.238281 77.023438 Z M 29.917969 86.464844 C 34.472656 85.160156 38.492188 87.78125 41.578125 89.796875 C 41.921875 90.019531 42.257812 90.234375 42.578125 90.4375 C 45.042969 92 47.65625 91.269531 50.371094 88.273438 C 43.992188 85.039062 40.511719 75.320312 37.929688 68.101562 C 37.558594 67.066406 36.425781 66.644531 35.660156 66.964844 C 35.382812 67.082031 34.363281 67.898438 32.816406 73.558594 C 32.8125 73.566406 32.808594 73.578125 32.804688 73.589844 C 31.945312 76.808594 32.160156 75.59375 30.3125 84.519531 C 30.179688 85.15625 30.050781 85.804688 29.917969 86.464844 Z M 29.640625 120.933594 C 29.957031 121.222656 31.863281 122.671875 39.363281 123.464844 C 42.210938 123.765625 45.949219 123.980469 50.28125 124.230469 C 52.800781 124.378906 55.460938 124.53125 58.191406 124.714844 L 59.507812 124.824219 L 59.496094 124.363281 L 60.609375 124.320312 L 60.578125 122.765625 L 61.6875 122.726562 L 61.660156 121.171875 L 62.769531 121.128906 L 62.742188 119.574219 L 63.851562 119.53125 L 63.820312 117.980469 L 64.933594 117.9375 L 64.902344 116.382812 L 66.011719 116.339844 L 65.984375 114.789062 L 67.09375 114.746094 L 67.0625 113.195312 L 68.175781 113.152344 L 68.144531 111.597656 L 69.257812 111.554688 L 69.226562 110 L 70.335938 109.957031 L 70.304688 108.40625 L 71.417969 108.363281 L 71.386719 106.8125 L 72.496094 106.769531 L 72.46875 105.214844 L 73.578125 105.171875 L 73.546875 103.621094 L 74.660156 103.578125 L 74.628906 102.027344 L 75.738281 101.984375 L 75.707031 100.429688 L 76.820312 100.390625 L 76.789062 98.835938 L 77.902344 98.792969 L 77.871094 97.242188 L 78.980469 97.199219 L 78.953125 95.644531 L 80.0625 95.605469 L 80.03125 94.050781 L 81.144531 94.011719 L 81.113281 92.457031 L 82.222656 92.414062 L 82.207031 91.617188 C 80.847656 90.277344 80.21875 87.726562 80.117188 85.980469 C 79.988281 83.859375 78.304688 79.960938 75.667969 75.652344 C 73.878906 77.023438 71.945312 78.75 69.84375 80.882812 C 64.0625 86.753906 59.019531 89.554688 54.515625 89.371094 C 51.476562 93.714844 48.242188 95.957031 45.09375 95.957031 C 43.761719 95.957031 42.449219 95.558594 41.171875 94.75 C 40.835938 94.539062 40.492188 94.316406 40.136719 94.082031 C 36.777344 91.890625 32.992188 89.425781 28.824219 91.871094 C 28.539062 93.285156 28.25 94.734375 27.949219 96.21875 C 24.851562 111.617188 29.320312 120.332031 29.640625 120.933594 Z M 91.738281 135.023438 C 89.941406 134.511719 87.859375 133.921875 85.4375 133.253906 C 75.105469 130.394531 61.261719 129.597656 50.140625 128.957031 C 45.777344 128.703125 42.015625 128.488281 39.105469 128.179688 C 34.179688 127.65625 31.257812 126.835938 29.5 126 L 28.675781 131.53125 C 31.128906 132.71875 37.363281 134.46875 48.125 134.667969 C 58.703125 134.863281 79.167969 134.972656 91.742188 135.023438 Z M 102.960938 133.609375 C 103.882812 132.101562 104.9375 130.332031 106.136719 128.265625 C 111.925781 118.285156 119.972656 117.796875 131.109375 117.121094 C 131.910156 117.074219 132.726562 117.023438 133.5625 116.96875 C 142.179688 116.40625 150.824219 114.375 156.476562 112.539062 C 156.3125 112.429688 156.144531 112.320312 155.972656 112.214844 C 151.144531 109.261719 139.078125 106.367188 131.890625 108.730469 C 125.421875 110.855469 123.066406 108.097656 120.789062 105.429688 C 120.523438 105.121094 120.261719 104.820312 120 104.527344 C 120 104.527344 115.972656 98.199219 108.5625 102.921875 C 107.121094 103.84375 106.023438 104.402344 104.371094 104.066406 L 104.386719 104.851562 L 103.277344 104.894531 L 103.308594 106.445312 L 102.195312 106.488281 L 102.226562 108.039062 L 101.113281 108.082031 L 101.144531 109.636719 L 100.03125 109.679688 L 100.0625 111.234375 L 98.953125 111.273438 L 98.984375 112.824219 L 97.871094 112.871094 L 97.902344 114.421875 L 96.792969 114.464844 L 96.820312 116.019531 L 95.710938 116.0625 L 95.742188 117.613281 L 94.628906 117.65625 L 94.660156 119.210938 L 93.546875 119.253906 L 93.578125 120.804688 L 92.46875 120.847656 L 92.496094 122.402344 L 91.386719 122.445312 L 91.417969 123.996094 L 90.304688 124.039062 L 90.335938 125.59375 L 89.226562 125.636719 L 89.253906 127.1875 L 88.144531 127.230469 L 88.175781 128.785156 L 87.0625 128.824219 L 87.0625 128.886719 C 88.714844 129.34375 90.210938 129.765625 91.554688 130.144531 L 100.507812 132.796875 C 101.78125 133.199219 102.539062 133.457031 102.960938 133.609375 Z M 165.246094 121.953125 C 165.195312 119.332031 165.109375 114.96875 164.578125 114.230469 C 164.507812 114.21875 164.183594 114.191406 163.4375 114.625 C 159.308594 117.039062 146.007812 120.894531 133.71875 121.691406 C 132.882812 121.746094 132.058594 121.796875 131.257812 121.84375 C 120.621094 122.488281 113.59375 122.917969 108.765625 131.242188 C 106.679688 134.839844 105.011719 137.570312 103.726562 139.59375 C 103.921875 139.617188 102.332031 141.417969 104.011719 142.003906 C 104.84375 142.292969 111.265625 141.398438 111.265625 141.398438 C 111.277344 141.394531 111.296875 141.394531 111.304688 141.394531 C 111.4375 141.378906 124.8125 140.160156 135.761719 138.320312 C 148.480469 136.1875 155.566406 132.917969 159.269531 130.554688 C 159.796875 130.21875 160.289062 129.914062 160.757812 129.625 C 164.554688 127.277344 165.34375 126.789062 165.25 121.953125 Z M 165.246094 121.953125 "/>
</g>
</svg>
