<?xml version="1.0" encoding="UTF-8"?>
<svg xmlns="http://www.w3.org/2000/svg" xmlns:xlink="http://www.w3.org/1999/xlink" width="144px" height="144px" viewBox="0 0 144 144" version="1.1">
<g id="surface1">
<path style=" stroke:none;fill-rule:nonzero;fill:rgb(97.254902%,38.431373%,31.372549%);fill-opacity:1;" d="M 65.242188 62.488281 C 65.582031 61.273438 66.566406 60.675781 67.433594 61.152344 L 78.941406 67.453125 C 79.8125 67.929688 80.242188 69.300781 79.902344 70.515625 C 79.640625 71.449219 79 72.019531 78.324219 72.019531 C 78.121094 72.019531 77.910156 71.964844 77.707031 71.855469 L 66.199219 65.550781 C 65.328125 65.074219 64.902344 63.703125 65.242188 62.488281 Z M 126.472656 91.367188 C 126.59375 97.375 124.601562 98.601562 121.59375 100.464844 C 121.253906 100.671875 120.890625 100.898438 120.507812 101.144531 C 116.289062 103.835938 109.933594 105.953125 102.125 107.265625 C 93.996094 108.632812 84.117188 109.542969 83.660156 109.585938 L 81.027344 109.914062 C 80.683594 109.953125 80.339844 109.800781 80.082031 109.484375 C 79.949219 109.324219 79.847656 109.128906 79.773438 108.917969 L 78.25 109.851562 C 78.085938 109.953125 77.910156 110 77.738281 110 C 77.507812 110 77.273438 109.914062 77.066406 109.734375 C 76.824219 109.523438 76.644531 109.207031 76.546875 108.84375 L 74.542969 109.75 C 74.164062 109.921875 73.753906 109.835938 73.429688 109.523438 C 73.222656 109.324219 73.066406 109.046875 72.972656 108.730469 L 70.855469 109.742188 C 70.46875 109.929688 70.042969 109.84375 69.707031 109.511719 C 69.488281 109.289062 69.328125 108.980469 69.242188 108.632812 L 67.449219 109.496094 C 67.078125 109.671875 66.664062 109.601562 66.335938 109.300781 C 66.007812 109 65.796875 108.5 65.769531 107.949219 L 65.761719 107.796875 L 62.976562 108.707031 C 62.804688 108.765625 62.621094 108.769531 62.445312 108.71875 L 60.363281 108.15625 C 60.332031 108.695312 60.125 109.191406 59.796875 109.492188 C 59.457031 109.808594 59.027344 109.871094 58.644531 109.667969 L 57.058594 108.820312 C 56.964844 109.074219 56.828125 109.296875 56.65625 109.46875 C 56.3125 109.796875 55.878906 109.875 55.488281 109.671875 L 53.328125 108.554688 C 53.238281 108.816406 53.097656 109.050781 52.925781 109.226562 C 52.609375 109.546875 52.207031 109.644531 51.835938 109.496094 L 49.839844 108.707031 C 49.757812 108.945312 49.636719 109.164062 49.480469 109.328125 C 49.160156 109.683594 48.734375 109.800781 48.34375 109.640625 L 46.152344 108.753906 C 46.058594 108.988281 45.925781 109.195312 45.765625 109.351562 C 45.429688 109.679688 45.003906 109.761719 44.617188 109.570312 L 42.484375 108.523438 C 42.394531 108.695312 42.285156 108.847656 42.152344 108.964844 C 41.824219 109.273438 41.414062 109.34375 41.039062 109.164062 L 39.226562 108.292969 C 39.144531 108.457031 39.042969 108.605469 38.921875 108.722656 C 38.605469 109.035156 38.203125 109.128906 37.832031 108.976562 L 35.566406 108.050781 C 35.546875 108.070312 35.527344 108.09375 35.507812 108.113281 C 35.179688 108.445312 34.761719 108.542969 34.375 108.371094 L 32.421875 107.511719 C 32.394531 107.542969 32.363281 107.574219 32.335938 107.605469 C 32.003906 107.9375 31.582031 108.03125 31.195312 107.851562 L 29.035156 106.863281 C 28.980469 106.929688 28.925781 106.996094 28.863281 107.054688 C 28.535156 107.355469 28.128906 107.433594 27.757812 107.257812 L 19.363281 103.347656 C 18.753906 103.066406 18.390625 102.183594 18.523438 101.304688 L 19.882812 92.164062 C 18.871094 89.914062 16.234375 82.578125 18.53125 71.199219 C 18.796875 69.890625 19.050781 68.613281 19.296875 67.378906 C 21.703125 55.3125 23.160156 48.027344 26.019531 46.828125 C 27.621094 46.15625 29.816406 46.96875 30.71875 49.488281 C 32.671875 54.941406 35.097656 61.726562 39.386719 63.1875 C 41.601562 63.941406 44.222656 63.214844 47.207031 61.035156 C 46.613281 60.683594 45.929688 60.246094 45.222656 59.730469 C 42.277344 57.585938 40.410156 55.203125 39.679688 52.644531 C 39.125 50.707031 39.230469 48.671875 39.980469 46.753906 C 42.886719 39.355469 46.363281 35.917969 46.984375 35.34375 C 47.132812 35.171875 47.417969 34.871094 47.792969 34.644531 C 48.613281 34.136719 49.457031 34.199219 50.164062 34.820312 C 50.523438 35.132812 54.175781 38.238281 60.449219 43.566406 C 63.074219 45.792969 65.550781 47.894531 66.96875 49.097656 C 67.03125 48.453125 67.34375 47.878906 67.8125 47.648438 C 68.476562 47.328125 69.199219 47.820312 69.425781 48.746094 L 70.023438 51.152344 C 70.746094 51.550781 71.441406 52.003906 72.109375 52.496094 C 72.257812 52.15625 72.488281 51.886719 72.777344 51.746094 C 73.4375 51.425781 74.164062 51.917969 74.390625 52.84375 L 74.851562 54.707031 C 74.878906 54.730469 74.90625 54.753906 74.933594 54.777344 C 75.652344 55.386719 76.335938 55.964844 77.03125 56.5 C 77.125 55.921875 77.421875 55.417969 77.855469 55.210938 C 78.515625 54.894531 79.242188 55.382812 79.46875 56.308594 L 80.050781 58.664062 C 80.578125 59.027344 81.144531 59.410156 81.738281 59.8125 C 81.710938 59.042969 82.046875 58.3125 82.59375 58.050781 C 83.253906 57.730469 83.976562 58.21875 84.207031 59.144531 L 84.882812 61.878906 C 85.53125 62.300781 86.203125 62.726562 86.886719 63.160156 C 86.792969 62.324219 87.132812 61.488281 87.726562 61.199219 C 88.386719 60.878906 89.109375 61.371094 89.339844 62.296875 L 90.039062 65.121094 C 90.878906 65.632812 91.730469 66.148438 92.59375 66.660156 C 92.722656 66.1875 92.996094 65.792969 93.367188 65.613281 C 94.027344 65.292969 94.75 65.785156 94.980469 66.710938 L 95.367188 68.277344 C 102.09375 72.136719 108.84375 75.464844 112.582031 75.980469 C 120.957031 77.132812 123.75 81.222656 124.042969 81.683594 L 124.039062 81.6875 C 124.179688 81.902344 124.3125 82.144531 124.4375 82.410156 C 124.558594 82.484375 124.683594 82.574219 124.804688 82.683594 C 126.332031 84.0625 126.394531 87.285156 126.472656 91.367188 Z M 59.113281 55.140625 C 60.625 57.707031 62.457031 61.355469 62.625 64.1875 C 62.71875 65.75 64.078125 66.484375 66.773438 68.167969 C 68.25 69.089844 71.179688 70.863281 72.019531 71.316406 C 76.140625 73.542969 78.097656 75.007812 80.621094 73.832031 C 84.476562 72.039062 86.523438 71.523438 89.96875 74.113281 C 90.898438 74.8125 91.601562 75.632812 92.222656 76.359375 C 93.726562 78.125 94.722656 79.289062 98.335938 78.101562 C 100.515625 77.382812 103.1875 77.238281 105.894531 77.460938 C 103.011719 76.226562 99.757812 74.558594 96.46875 72.726562 L 96.765625 73.917969 C 96.992188 74.84375 96.640625 75.851562 95.976562 76.171875 C 95.839844 76.238281 95.703125 76.269531 95.566406 76.269531 C 95.039062 76.269531 94.546875 75.808594 94.363281 75.074219 L 93.34375 70.945312 C 92.609375 70.515625 91.878906 70.082031 91.15625 69.652344 C 91.316406 70.535156 90.964844 71.453125 90.339844 71.757812 C 90.199219 71.824219 90.0625 71.855469 89.925781 71.855469 C 89.398438 71.855469 88.90625 71.394531 88.722656 70.660156 L 87.996094 67.726562 C 87.324219 67.308594 86.664062 66.894531 86.019531 66.488281 C 86.179688 67.375 85.835938 68.300781 85.203125 68.605469 C 85.066406 68.671875 84.925781 68.703125 84.789062 68.703125 C 84.261719 68.703125 83.773438 68.242188 83.589844 67.507812 L 82.832031 64.441406 C 82.269531 64.074219 81.730469 63.71875 81.21875 63.378906 L 81.25 63.515625 C 81.480469 64.441406 81.128906 65.449219 80.464844 65.769531 C 80.328125 65.835938 80.191406 65.867188 80.054688 65.867188 C 79.527344 65.867188 79.035156 65.40625 78.851562 64.671875 L 77.992188 61.1875 C 77.324219 60.722656 76.757812 60.316406 76.316406 59.996094 C 76.253906 59.949219 76.1875 59.898438 76.125 59.847656 L 76.171875 60.046875 C 76.402344 60.972656 76.050781 61.980469 75.390625 62.300781 C 75.253906 62.367188 75.113281 62.398438 74.976562 62.398438 C 74.449219 62.398438 73.957031 61.9375 73.773438 61.203125 L 72.753906 57.078125 C 72.230469 56.640625 71.710938 56.21875 71.179688 55.820312 L 71.210938 55.949219 C 71.4375 56.875 71.085938 57.882812 70.425781 58.203125 C 70.289062 58.269531 70.148438 58.300781 70.011719 58.300781 C 69.484375 58.300781 68.992188 57.839844 68.8125 57.105469 L 68.03125 53.957031 C 65.585938 52.964844 62.78125 52.972656 59.113281 55.140625 Z M 72.21875 74.898438 L 67.738281 72.3125 L 67.738281 72.328125 L 66.902344 72.359375 L 66.925781 73.523438 L 66.09375 73.554688 L 66.117188 74.71875 L 65.28125 74.753906 L 65.304688 75.917969 L 64.472656 75.949219 L 64.496094 77.113281 L 63.660156 77.144531 L 63.683594 78.308594 L 62.851562 78.339844 L 62.875 79.503906 L 62.039062 79.535156 L 62.0625 80.699219 L 61.230469 80.734375 L 61.253906 81.898438 L 60.417969 81.929688 L 60.441406 83.09375 L 59.609375 83.125 L 59.632812 84.289062 L 58.796875 84.320312 L 58.820312 85.488281 L 57.988281 85.519531 L 58.011719 86.683594 L 57.175781 86.714844 L 57.199219 87.878906 L 56.367188 87.910156 L 56.390625 89.074219 L 55.554688 89.109375 L 55.578125 90.273438 L 54.746094 90.304688 L 54.769531 91.472656 L 53.933594 91.503906 L 53.957031 92.667969 L 53.125 92.699219 L 53.144531 93.863281 L 52.3125 93.894531 L 52.320312 94.289062 C 53.765625 94.449219 55.207031 94.625 56.613281 94.835938 L 58.433594 95.195312 L 58.425781 94.796875 L 59.261719 94.761719 L 59.238281 93.597656 L 60.070312 93.566406 L 60.046875 92.402344 L 60.882812 92.371094 L 60.859375 91.207031 L 61.691406 91.171875 L 61.667969 90.007812 L 62.503906 89.976562 L 62.480469 88.8125 L 63.3125 88.78125 L 63.292969 87.617188 L 64.125 87.582031 L 64.101562 86.417969 L 64.933594 86.386719 L 64.914062 85.222656 L 65.746094 85.191406 L 65.722656 84.023438 L 66.554688 83.992188 L 66.53125 82.828125 L 67.367188 82.796875 L 67.34375 81.632812 L 68.175781 81.597656 L 68.15625 80.433594 L 68.988281 80.402344 L 68.964844 79.238281 L 69.796875 79.207031 L 69.777344 78.042969 L 70.609375 78.011719 L 70.585938 76.847656 L 71.421875 76.8125 L 71.398438 75.648438 L 72.230469 75.617188 Z M 60.746094 50.601562 C 61.554688 50.289062 62.328125 50.070312 63.066406 49.9375 C 62.6875 49.613281 62.289062 49.273438 61.875 48.925781 C 61.527344 49.417969 61.148438 49.980469 60.746094 50.601562 Z M 59.609375 47 C 58.453125 48.65625 56.980469 51.039062 55.46875 53.695312 C 56.285156 53.070312 57.066406 52.53125 57.816406 52.070312 C 58.808594 50.40625 59.738281 48.949219 60.539062 47.789062 C 60.234375 47.53125 59.925781 47.269531 59.609375 47 Z M 57.347656 45.078125 C 55.976562 47.054688 54.210938 49.960938 52.445312 53.164062 C 51.425781 55.015625 50.464844 56.867188 49.632812 58.5625 C 49.75 58.617188 49.855469 58.667969 49.957031 58.714844 C 50.269531 58.421875 50.582031 58.113281 50.898438 57.792969 C 51.214844 57.46875 51.527344 57.160156 51.839844 56.859375 C 52.335938 55.902344 52.859375 54.921875 53.40625 53.933594 C 55.15625 50.753906 56.890625 47.890625 58.277344 45.871094 C 57.96875 45.609375 57.65625 45.34375 57.347656 45.078125 Z M 41.957031 51.011719 C 42.789062 49.324219 43.738281 47.5 44.742188 45.671875 C 46.3125 42.824219 47.902344 40.171875 49.230469 38.179688 C 49.0625 38.035156 48.933594 37.925781 48.859375 37.863281 C 48.773438 37.902344 48.640625 38.019531 48.617188 38.054688 C 48.554688 38.136719 48.488281 38.207031 48.417969 38.269531 C 48.386719 38.296875 45 41.34375 42.207031 48.457031 C 41.859375 49.347656 41.777344 50.167969 41.957031 51.011719 Z M 43.628906 54.09375 C 44.5625 52.140625 45.695312 49.945312 46.910156 47.738281 C 48.53125 44.792969 50.148438 42.105469 51.488281 40.105469 C 51.15625 39.820312 50.84375 39.554688 50.558594 39.3125 C 49.226562 41.28125 47.582031 44.011719 45.953125 46.96875 C 44.800781 49.0625 43.71875 51.152344 42.820312 53.019531 C 43.058594 53.390625 43.332031 53.75 43.628906 54.09375 Z M 45.800781 56.140625 C 46.734375 54.191406 47.863281 52.003906 49.074219 49.804688 C 50.734375 46.789062 52.390625 44.039062 53.75 42.023438 C 53.433594 41.753906 53.121094 41.492188 52.820312 41.234375 C 51.476562 43.207031 49.804688 45.972656 48.117188 49.035156 C 46.90625 51.234375 45.78125 53.417969 44.859375 55.351562 C 45.164062 55.625 45.480469 55.890625 45.800781 56.140625 Z M 48.179688 57.765625 C 49.070312 55.929688 50.121094 53.898438 51.238281 51.867188 C 52.933594 48.792969 54.640625 45.96875 56.015625 43.949219 C 55.703125 43.683594 55.390625 43.417969 55.082031 43.15625 C 53.722656 45.136719 52.007812 47.96875 50.28125 51.097656 C 49.128906 53.191406 48.058594 55.265625 47.164062 57.125 C 47.511719 57.359375 47.851562 57.574219 48.179688 57.765625 Z M 22.4375 64.847656 C 25.855469 63.871094 28.871094 65.835938 31.183594 67.347656 C 31.441406 67.515625 31.691406 67.675781 31.933594 67.828125 C 33.78125 69 35.742188 68.453125 37.777344 66.207031 C 32.996094 63.78125 30.386719 56.492188 28.445312 51.078125 C 28.167969 50.296875 27.320312 49.984375 26.746094 50.226562 C 26.539062 50.3125 25.773438 50.925781 24.609375 55.167969 C 24.609375 55.175781 24.605469 55.183594 24.605469 55.191406 C 23.957031 57.605469 24.121094 56.695312 22.734375 63.390625 C 22.636719 63.867188 22.535156 64.351562 22.4375 64.847656 Z M 22.230469 90.699219 C 22.46875 90.917969 23.898438 92.003906 29.519531 92.597656 C 31.660156 92.824219 34.464844 92.988281 37.710938 93.175781 C 39.601562 93.285156 41.597656 93.398438 43.644531 93.535156 L 44.628906 93.617188 L 44.625 93.273438 L 45.457031 93.238281 L 45.433594 92.074219 L 46.265625 92.042969 L 46.246094 90.878906 L 47.078125 90.847656 L 47.054688 89.679688 L 47.890625 89.648438 L 47.867188 88.484375 L 48.699219 88.453125 L 48.675781 87.289062 L 49.511719 87.253906 L 49.488281 86.089844 L 50.320312 86.058594 L 50.296875 84.894531 L 51.132812 84.863281 L 51.109375 83.699219 L 51.941406 83.664062 L 51.917969 82.5 L 52.753906 82.46875 L 52.730469 81.304688 L 53.5625 81.273438 L 53.539062 80.109375 L 54.375 80.074219 L 54.351562 78.910156 L 55.183594 78.878906 L 55.160156 77.714844 L 55.992188 77.683594 L 55.972656 76.519531 L 56.804688 76.488281 L 56.78125 75.324219 L 57.613281 75.292969 L 57.59375 74.125 L 58.425781 74.09375 L 58.402344 72.929688 L 59.234375 72.898438 L 59.214844 71.734375 L 60.046875 71.703125 L 60.023438 70.539062 L 60.855469 70.507812 L 60.835938 69.34375 L 61.667969 69.3125 L 61.65625 68.714844 C 60.632812 67.707031 60.164062 65.792969 60.085938 64.484375 C 59.992188 62.894531 58.726562 59.972656 56.75 56.742188 C 55.40625 57.769531 53.957031 59.0625 52.382812 60.664062 C 48.046875 65.066406 44.265625 67.164062 40.886719 67.027344 C 38.609375 70.289062 36.179688 71.96875 33.820312 71.96875 C 32.820312 71.96875 31.835938 71.667969 30.878906 71.0625 C 30.628906 70.90625 30.367188 70.734375 30.101562 70.5625 C 27.582031 68.917969 24.742188 67.066406 21.617188 68.902344 C 21.40625 69.964844 21.1875 71.050781 20.964844 72.164062 C 18.640625 83.710938 21.992188 90.25 22.230469 90.699219 Z M 68.804688 101.269531 C 67.457031 100.882812 65.894531 100.441406 64.078125 99.941406 C 56.328125 97.792969 45.945312 97.199219 37.605469 96.714844 C 34.335938 96.527344 31.511719 96.363281 29.328125 96.132812 C 25.636719 95.742188 23.445312 95.125 22.125 94.5 L 21.507812 98.648438 C 23.347656 99.539062 28.023438 100.851562 36.09375 101.003906 C 44.027344 101.148438 59.375 101.230469 68.804688 101.269531 Z M 77.222656 100.207031 C 77.914062 99.074219 78.703125 97.75 79.601562 96.199219 C 83.945312 88.714844 89.976562 88.347656 98.332031 87.839844 C 98.933594 87.804688 99.542969 87.765625 100.171875 87.726562 C 106.636719 87.304688 113.117188 85.78125 117.359375 84.402344 C 117.234375 84.320312 117.109375 84.238281 116.980469 84.160156 C 113.359375 81.945312 104.308594 79.773438 98.917969 81.546875 C 94.066406 83.140625 92.300781 81.074219 90.589844 79.074219 C 90.394531 78.839844 90.195312 78.613281 90 78.394531 C 90 78.394531 86.980469 73.648438 81.421875 77.191406 C 80.339844 77.882812 79.519531 78.300781 78.277344 78.050781 L 78.289062 78.636719 L 77.457031 78.667969 L 77.480469 79.832031 L 76.648438 79.863281 L 76.667969 81.03125 L 75.835938 81.0625 L 75.859375 82.226562 L 75.023438 82.257812 L 75.046875 83.425781 L 74.214844 83.457031 L 74.238281 84.621094 L 73.402344 84.652344 L 73.425781 85.816406 L 72.59375 85.847656 L 72.617188 87.011719 L 71.78125 87.046875 L 71.804688 88.210938 L 70.972656 88.242188 L 70.996094 89.40625 L 70.160156 89.441406 L 70.183594 90.605469 L 69.351562 90.636719 L 69.375 91.800781 L 68.539062 91.832031 L 68.5625 92.996094 L 67.730469 93.03125 L 67.753906 94.195312 L 66.917969 94.226562 L 66.941406 95.390625 L 66.109375 95.421875 L 66.132812 96.589844 L 65.296875 96.621094 L 65.296875 96.664062 C 66.535156 97.007812 67.660156 97.324219 68.664062 97.609375 L 75.382812 99.597656 C 76.335938 99.898438 76.90625 100.09375 77.222656 100.207031 Z M 123.9375 91.464844 C 123.894531 89.5 123.832031 86.226562 123.433594 85.671875 C 123.378906 85.664062 123.136719 85.644531 122.578125 85.96875 C 119.484375 87.777344 109.503906 90.667969 100.289062 91.269531 C 99.660156 91.308594 99.042969 91.347656 98.441406 91.382812 C 90.464844 91.867188 85.195312 92.1875 81.574219 98.433594 C 80.011719 101.128906 78.757812 103.175781 77.796875 104.695312 C 77.941406 104.710938 76.75 106.0625 78.011719 106.503906 C 78.632812 106.722656 83.449219 106.050781 83.449219 106.050781 C 83.460938 106.046875 83.472656 106.042969 83.480469 106.042969 C 83.578125 106.035156 93.609375 105.121094 101.820312 103.738281 C 111.359375 102.140625 116.675781 99.6875 119.453125 97.917969 C 119.847656 97.664062 120.21875 97.433594 120.566406 97.21875 C 123.414062 95.457031 124.007812 95.089844 123.9375 91.464844 Z M 123.9375 91.464844 "/>
</g>
</svg>
