<?xml version="1.0" encoding="UTF-8"?>
<svg xmlns="http://www.w3.org/2000/svg" xmlns:xlink="http://www.w3.org/1999/xlink" width="512px" height="512px" viewBox="0 0 512 512" version="1.1">
<g id="surface1">
<path style=" stroke:none;fill-rule:nonzero;fill:rgb(97.254902%,38.431373%,31.372549%);fill-opacity:1;" d="M 231.972656 222.179688 C 233.183594 217.859375 236.675781 215.730469 239.769531 217.421875 L 280.6875 239.835938 C 283.777344 241.53125 285.304688 246.402344 284.089844 250.730469 C 283.160156 254.042969 280.890625 256.066406 278.492188 256.066406 C 277.761719 256.066406 277.019531 255.878906 276.296875 255.484375 L 235.378906 233.070312 C 232.28125 231.375 230.757812 226.5 231.972656 222.183594 Z M 449.6875 324.867188 C 450.105469 346.214844 443.035156 350.582031 432.328125 357.203125 C 431.121094 357.949219 429.835938 358.746094 428.464844 359.621094 C 413.464844 369.195312 390.871094 376.726562 363.109375 381.386719 C 334.203125 386.242188 299.078125 389.488281 297.457031 389.636719 L 288.097656 390.796875 C 286.875 390.949219 285.660156 390.398438 284.734375 389.269531 C 284.265625 388.703125 283.898438 388.015625 283.632812 387.257812 L 278.222656 390.582031 C 277.640625 390.941406 277.019531 391.117188 276.402344 391.117188 C 275.578125 391.117188 274.746094 390.796875 274.019531 390.167969 C 273.15625 389.417969 272.511719 388.289062 272.167969 386.996094 L 265.039062 390.222656 C 263.699219 390.835938 262.234375 390.527344 261.078125 389.417969 C 260.347656 388.707031 259.785156 387.714844 259.464844 386.59375 L 251.9375 390.195312 C 250.554688 390.859375 249.035156 390.546875 247.851562 389.371094 C 247.066406 388.585938 246.496094 387.488281 246.195312 386.25 L 239.816406 389.320312 C 238.492188 389.949219 237.03125 389.695312 235.863281 388.625 C 234.695312 387.546875 233.949219 385.773438 233.847656 383.824219 L 233.816406 383.28125 L 223.921875 386.511719 C 223.304688 386.714844 222.660156 386.730469 222.035156 386.5625 L 214.625 384.550781 C 214.515625 386.476562 213.773438 388.234375 212.613281 389.300781 C 211.398438 390.425781 209.871094 390.65625 208.511719 389.929688 L 202.878906 386.914062 C 202.546875 387.824219 202.054688 388.617188 201.441406 389.214844 C 200.226562 390.394531 198.675781 390.671875 197.292969 389.949219 L 189.609375 385.96875 C 189.285156 386.910156 188.796875 387.742188 188.175781 388.367188 C 187.054688 389.496094 185.628906 389.847656 184.300781 389.324219 L 177.210938 386.511719 C 176.917969 387.363281 176.484375 388.132812 175.9375 388.726562 C 174.792969 389.988281 173.285156 390.398438 171.886719 389.835938 L 164.09375 386.679688 C 163.765625 387.511719 163.296875 388.25 162.722656 388.808594 C 161.53125 389.96875 160.015625 390.265625 158.640625 389.589844 L 151.050781 385.863281 C 150.734375 386.476562 150.34375 387.007812 149.878906 387.433594 C 148.710938 388.523438 147.242188 388.78125 145.917969 388.144531 L 139.472656 385.046875 C 139.179688 385.632812 138.816406 386.148438 138.390625 386.570312 C 137.269531 387.675781 135.839844 388.007812 134.519531 387.46875 L 126.460938 384.175781 C 126.394531 384.253906 126.320312 384.332031 126.25 384.402344 C 125.085938 385.589844 123.59375 385.929688 122.222656 385.328125 L 115.273438 382.257812 C 115.179688 382.378906 115.074219 382.488281 114.972656 382.59375 C 113.796875 383.777344 112.292969 384.105469 110.917969 383.476562 L 103.234375 379.953125 C 103.046875 380.199219 102.839844 380.429688 102.621094 380.640625 C 101.460938 381.707031 100.015625 381.980469 98.699219 381.363281 L 68.847656 367.464844 C 66.679688 366.453125 65.390625 363.324219 65.859375 360.199219 L 70.699219 327.699219 C 67.101562 319.695312 57.722656 293.609375 65.890625 253.148438 C 66.832031 248.496094 67.734375 243.964844 68.609375 239.566406 C 77.171875 196.664062 82.339844 170.761719 92.511719 166.5 C 98.207031 164.117188 106.015625 167 109.222656 175.964844 C 116.164062 195.351562 124.796875 219.46875 140.046875 224.667969 C 147.910156 227.34375 157.230469 224.769531 167.855469 217.019531 C 165.734375 215.761719 163.308594 214.207031 160.792969 212.382812 C 150.3125 204.753906 143.679688 196.273438 141.078125 187.175781 C 139.109375 180.292969 139.484375 173.058594 142.160156 166.238281 C 152.484375 139.929688 164.84375 127.710938 167.054688 125.667969 C 167.589844 125.050781 168.601562 123.992188 169.925781 123.179688 C 172.847656 121.382812 175.84375 121.605469 178.355469 123.800781 C 179.636719 124.917969 192.628906 135.960938 214.933594 154.898438 C 224.261719 162.816406 233.066406 170.285156 238.117188 174.570312 C 238.328125 172.273438 239.441406 170.230469 241.113281 169.421875 C 243.46875 168.28125 246.039062 170.027344 246.851562 173.316406 L 248.972656 181.882812 C 251.542969 183.285156 254.007812 184.90625 256.386719 186.648438 C 256.917969 185.449219 257.734375 184.484375 258.761719 183.988281 C 261.117188 182.847656 263.6875 184.59375 264.5 187.886719 L 266.144531 194.511719 C 266.242188 194.59375 266.335938 194.675781 266.433594 194.761719 C 268.984375 196.925781 271.421875 198.984375 273.886719 200.890625 C 274.21875 198.832031 275.28125 197.046875 276.8125 196.308594 C 279.171875 195.175781 281.742188 196.917969 282.554688 200.210938 L 284.625 208.582031 C 286.5 209.875 288.511719 211.242188 290.628906 212.664062 C 290.53125 209.9375 291.71875 207.328125 293.660156 206.398438 C 296.019531 205.257812 298.589844 207.003906 299.402344 210.296875 L 301.808594 220.015625 C 304.117188 221.507812 306.496094 223.027344 308.9375 224.574219 C 308.59375 221.597656 309.804688 218.617188 311.917969 217.601562 C 314.269531 216.464844 316.839844 218.210938 317.648438 221.503906 L 320.132812 231.535156 C 323.117188 233.359375 326.15625 235.195312 329.21875 237.015625 C 329.675781 235.328125 330.648438 233.929688 331.96875 233.292969 C 334.324219 232.15625 336.890625 233.894531 337.707031 237.191406 L 339.085938 242.769531 C 363.003906 256.480469 386.996094 268.324219 400.296875 270.15625 C 430.066406 274.253906 440.003906 288.789062 441.042969 290.433594 L 441.027344 290.449219 C 441.527344 291.210938 442 292.0625 442.4375 293.019531 C 442.878906 293.28125 443.316406 293.59375 443.746094 293.980469 C 449.175781 298.890625 449.402344 310.351562 449.6875 324.863281 Z M 210.175781 196.054688 C 215.550781 205.179688 222.066406 218.152344 222.667969 228.226562 C 223 233.785156 227.828125 236.382812 237.414062 242.375 C 242.667969 245.65625 253.082031 251.953125 256.070312 253.570312 C 270.71875 261.484375 277.6875 266.6875 286.65625 262.515625 C 300.359375 256.136719 307.644531 254.300781 319.894531 263.515625 C 323.195312 265.996094 325.695312 268.917969 327.898438 271.503906 C 333.257812 277.773438 336.792969 281.910156 349.644531 277.6875 C 357.394531 275.140625 366.882812 274.625 376.515625 275.417969 C 366.261719 271.035156 354.6875 265.101562 343 258.589844 L 344.050781 262.816406 C 344.863281 266.105469 343.613281 269.699219 341.257812 270.832031 C 340.769531 271.066406 340.273438 271.175781 339.785156 271.175781 C 337.914062 271.175781 336.164062 269.539062 335.519531 266.929688 L 331.890625 252.246094 C 329.277344 250.722656 326.675781 249.183594 324.105469 247.644531 C 324.675781 250.785156 323.433594 254.058594 321.203125 255.136719 C 320.714844 255.375 320.214844 255.484375 319.730469 255.484375 C 317.859375 255.484375 316.109375 253.84375 315.460938 251.238281 L 312.882812 240.808594 C 310.484375 239.324219 308.132812 237.851562 305.839844 236.402344 C 306.421875 239.554688 305.191406 242.847656 302.945312 243.929688 C 302.460938 244.164062 301.960938 244.277344 301.476562 244.277344 C 299.601562 244.277344 297.855469 242.636719 297.207031 240.027344 L 294.511719 229.121094 C 292.519531 227.820312 290.601562 226.558594 288.777344 225.34375 L 288.894531 225.828125 C 289.707031 229.117188 288.457031 232.710938 286.101562 233.84375 C 285.617188 234.082031 285.121094 234.191406 284.632812 234.191406 C 282.761719 234.191406 281.011719 232.550781 280.363281 229.945312 L 277.300781 217.550781 C 274.929688 215.894531 272.914062 214.464844 271.351562 213.3125 C 271.125 213.144531 270.894531 212.96875 270.664062 212.792969 L 270.839844 213.5 C 271.65625 216.789062 270.402344 220.378906 268.050781 221.515625 C 267.5625 221.75 267.066406 221.859375 266.578125 221.859375 C 264.707031 221.859375 262.957031 220.222656 262.308594 217.613281 L 258.683594 202.945312 C 256.824219 201.394531 254.96875 199.882812 253.078125 198.46875 L 253.191406 198.925781 C 254.003906 202.21875 252.757812 205.808594 250.402344 206.941406 C 249.914062 207.175781 249.417969 207.292969 248.925781 207.292969 C 247.058594 207.292969 245.308594 205.652344 244.660156 203.046875 L 241.894531 191.851562 C 233.199219 188.320312 223.226562 188.347656 210.175781 196.054688 Z M 256.769531 266.300781 L 240.847656 257.117188 L 240.847656 257.167969 L 237.882812 257.28125 L 237.964844 261.421875 L 235 261.53125 L 235.082031 265.671875 L 232.117188 265.785156 L 232.199219 269.925781 L 229.238281 270.035156 L 229.316406 274.179688 L 226.351562 274.289062 L 226.433594 278.429688 L 223.46875 278.542969 L 223.550781 282.683594 L 220.589844 282.792969 L 220.667969 286.933594 L 217.707031 287.046875 L 217.789062 291.1875 L 214.824219 291.300781 L 214.902344 295.441406 L 211.941406 295.558594 L 212.023438 299.699219 L 209.058594 299.8125 L 209.140625 303.953125 L 206.175781 304.070312 L 206.257812 308.207031 L 203.296875 308.324219 L 203.378906 312.464844 L 200.414062 312.578125 L 200.496094 316.714844 L 197.53125 316.835938 L 197.613281 320.972656 L 194.652344 321.089844 L 194.730469 325.230469 L 191.769531 325.34375 L 191.851562 329.484375 L 188.882812 329.597656 L 188.964844 333.738281 L 186 333.855469 L 186.03125 335.246094 C 191.171875 335.816406 196.285156 336.449219 201.296875 337.199219 L 207.769531 338.472656 L 207.742188 337.050781 L 210.707031 336.9375 L 210.625 332.792969 L 213.589844 332.683594 L 213.507812 328.539062 L 216.46875 328.425781 L 216.390625 324.285156 L 219.351562 324.171875 L 219.269531 320.027344 L 222.234375 319.917969 L 222.152344 315.777344 L 225.117188 315.660156 L 225.035156 311.519531 L 228 311.40625 L 227.917969 307.265625 L 230.882812 307.152344 L 230.800781 303.007812 L 233.761719 302.898438 L 233.679688 298.753906 L 236.644531 298.640625 L 236.558594 294.5 L 239.527344 294.386719 L 239.445312 290.242188 L 242.40625 290.128906 L 242.328125 285.988281 L 245.289062 285.878906 L 245.207031 281.734375 L 248.171875 281.625 L 248.089844 277.480469 L 251.058594 277.371094 L 250.976562 273.230469 L 253.941406 273.117188 L 253.859375 268.976562 L 256.824219 268.867188 Z M 215.988281 179.917969 C 218.863281 178.804688 221.613281 178.03125 224.238281 177.550781 C 222.890625 176.402344 221.472656 175.199219 220.003906 173.953125 C 218.765625 175.703125 217.417969 177.707031 215.988281 179.917969 Z M 211.949219 167.117188 C 207.832031 173 202.59375 181.46875 197.226562 190.910156 C 200.121094 188.695312 202.902344 186.773438 205.574219 185.136719 C 209.105469 179.222656 212.398438 174.039062 215.25 169.917969 C 214.164062 168.996094 213.0625 168.066406 211.949219 167.117188 Z M 203.898438 160.28125 C 199.03125 167.296875 192.75 177.644531 186.476562 189.03125 C 182.851562 195.617188 179.429688 202.1875 176.476562 208.21875 C 176.890625 208.421875 177.269531 208.601562 177.628906 208.761719 C 178.730469 207.714844 179.847656 206.625 180.972656 205.480469 C 182.105469 204.335938 183.210938 203.238281 184.3125 202.171875 C 186.089844 198.757812 187.945312 195.285156 189.882812 191.769531 C 196.113281 180.453125 202.269531 170.285156 207.207031 163.09375 C 206.109375 162.160156 205.007812 161.222656 203.898438 160.28125 Z M 149.179688 181.375 C 152.132812 175.375 155.515625 168.882812 159.089844 162.394531 C 164.671875 152.257812 170.324219 142.832031 175.042969 135.753906 C 174.4375 135.238281 173.984375 134.851562 173.722656 134.625 C 173.417969 134.757812 172.949219 135.1875 172.859375 135.308594 C 172.644531 135.597656 172.40625 135.851562 172.15625 136.066406 C 172.046875 136.167969 160 146.996094 150.074219 172.296875 C 148.832031 175.457031 148.542969 178.371094 149.179688 181.375 Z M 155.121094 192.339844 C 158.441406 185.386719 162.46875 177.582031 166.792969 169.734375 C 172.558594 159.265625 178.300781 149.703125 183.074219 142.59375 C 181.886719 141.582031 180.777344 140.636719 179.765625 139.773438 C 175.03125 146.769531 169.179688 156.488281 163.386719 167.003906 C 159.292969 174.4375 155.449219 181.871094 152.253906 188.507812 C 153.097656 189.828125 154.066406 191.105469 155.121094 192.339844 Z M 162.847656 199.613281 C 166.164062 192.679688 170.175781 184.898438 174.492188 177.078125 C 180.394531 166.359375 186.277344 156.589844 191.117188 149.421875 C 189.984375 148.457031 188.878906 147.523438 187.808594 146.613281 C 183.019531 153.625 177.082031 163.460938 171.082031 174.347656 C 166.777344 182.164062 162.777344 189.929688 159.5 196.800781 C 160.585938 197.78125 161.707031 198.722656 162.847656 199.613281 Z M 171.300781 205.394531 C 174.46875 198.859375 178.210938 191.636719 182.1875 184.421875 C 188.210938 173.484375 194.273438 163.449219 199.164062 156.257812 C 198.050781 155.3125 196.945312 154.375 195.851562 153.445312 C 191.007812 160.488281 184.917969 170.550781 178.78125 181.6875 C 174.6875 189.125 170.871094 196.5 167.691406 203.113281 C 168.929688 203.941406 170.144531 204.703125 171.300781 205.394531 Z M 79.78125 230.570312 C 91.925781 227.097656 102.644531 234.082031 110.875 239.453125 C 111.792969 240.046875 112.683594 240.628906 113.542969 241.171875 C 120.117188 245.332031 127.082031 243.382812 134.320312 235.398438 C 117.3125 226.769531 108.035156 200.859375 101.144531 181.605469 C 100.15625 178.839844 97.132812 177.722656 95.09375 178.578125 C 94.359375 178.882812 91.636719 181.066406 87.507812 196.152344 C 87.5 196.179688 87.488281 196.210938 87.484375 196.238281 C 85.1875 204.824219 85.765625 201.585938 80.832031 225.386719 C 80.484375 227.085938 80.132812 228.8125 79.78125 230.570312 Z M 79.046875 322.484375 C 79.886719 323.261719 84.96875 327.125 104.964844 329.238281 C 112.566406 330.042969 122.535156 330.621094 134.082031 331.285156 C 140.804688 331.675781 147.898438 332.082031 155.175781 332.570312 L 158.6875 332.867188 L 158.660156 331.636719 L 161.625 331.519531 L 161.542969 327.378906 L 164.503906 327.265625 L 164.425781 323.125 L 167.386719 323.007812 L 167.308594 318.867188 L 170.269531 318.753906 L 170.1875 314.617188 L 173.152344 314.496094 L 173.074219 310.359375 L 176.035156 310.242188 L 175.953125 306.101562 L 178.917969 305.988281 L 178.835938 301.851562 L 181.800781 301.734375 L 181.71875 297.59375 L 184.683594 297.476562 L 184.605469 293.339844 L 187.566406 293.222656 L 187.484375 289.082031 L 190.449219 288.96875 L 190.363281 284.832031 L 193.328125 284.714844 L 193.246094 280.578125 L 196.207031 280.460938 L 196.125 276.324219 L 199.089844 276.207031 L 199.011719 272.070312 L 201.972656 271.953125 L 201.890625 267.816406 L 204.855469 267.703125 L 204.773438 263.558594 L 207.738281 263.449219 L 207.65625 259.308594 L 210.617188 259.195312 L 210.539062 255.054688 L 213.5 254.945312 L 213.417969 250.804688 L 216.382812 250.695312 L 216.300781 246.554688 L 219.265625 246.441406 L 219.222656 244.316406 C 215.589844 240.734375 213.921875 233.933594 213.644531 229.28125 C 213.304688 223.621094 208.808594 213.230469 201.78125 201.742188 C 197.007812 205.398438 191.851562 209.996094 186.25 215.6875 C 170.832031 231.347656 157.382812 238.8125 145.378906 238.324219 C 137.273438 249.910156 128.644531 255.886719 120.25 255.886719 C 116.699219 255.886719 113.195312 254.824219 109.789062 252.667969 C 108.898438 252.105469 107.976562 251.503906 107.027344 250.886719 C 98.074219 245.046875 87.976562 238.464844 76.863281 244.988281 C 76.105469 248.761719 75.335938 252.628906 74.535156 256.585938 C 66.273438 297.644531 78.1875 320.882812 79.046875 322.484375 Z M 244.640625 360.0625 C 239.847656 358.695312 234.289062 357.128906 227.835938 355.34375 C 200.28125 347.714844 163.367188 345.589844 133.703125 343.882812 C 122.078125 343.210938 112.039062 342.632812 104.277344 341.808594 C 91.152344 340.421875 83.359375 338.226562 78.671875 335.996094 L 76.472656 350.753906 C 83.011719 353.917969 99.632812 358.585938 128.335938 359.121094 C 156.539062 359.636719 211.113281 359.925781 244.640625 360.0625 Z M 274.566406 356.289062 C 277.023438 352.265625 279.828125 347.550781 283.027344 342.042969 C 298.464844 315.425781 319.921875 314.125 349.621094 312.320312 C 351.757812 312.195312 353.9375 312.058594 356.167969 311.914062 C 379.148438 310.421875 402.195312 305.003906 417.273438 300.105469 C 416.828125 299.808594 416.386719 299.519531 415.929688 299.234375 C 403.050781 291.367188 370.871094 283.644531 351.707031 289.945312 C 334.453125 295.613281 328.175781 288.261719 322.101562 281.148438 C 321.398438 280.320312 320.699219 279.515625 320 278.734375 C 320 278.734375 309.261719 261.863281 289.503906 274.460938 C 285.65625 276.917969 282.730469 278.40625 278.324219 277.507812 L 278.367188 279.601562 L 275.402344 279.714844 L 275.484375 283.855469 L 272.523438 283.964844 L 272.601562 288.109375 L 269.636719 288.222656 L 269.71875 292.363281 L 266.753906 292.476562 L 266.835938 296.621094 L 263.875 296.730469 L 263.953125 300.871094 L 260.992188 300.988281 L 261.074219 305.128906 L 258.109375 305.242188 L 258.191406 309.382812 L 255.226562 309.496094 L 255.308594 313.640625 L 252.347656 313.75 L 252.425781 317.894531 L 249.460938 318.007812 L 249.542969 322.148438 L 246.578125 322.261719 L 246.660156 326.40625 L 243.699219 326.515625 L 243.777344 330.65625 L 240.816406 330.773438 L 240.898438 334.914062 L 237.933594 335.027344 L 238.011719 339.167969 L 235.050781 339.28125 L 235.132812 343.425781 L 232.167969 343.535156 L 232.171875 343.695312 C 236.570312 344.914062 240.566406 346.039062 244.144531 347.054688 L 268.023438 354.125 C 271.414062 355.199219 273.441406 355.890625 274.566406 356.289062 Z M 440.660156 325.207031 C 440.519531 318.222656 440.296875 306.585938 438.875 304.613281 C 438.683594 304.578125 437.820312 304.511719 435.835938 305.671875 C 424.828125 312.101562 389.351562 322.378906 356.585938 324.511719 C 354.351562 324.65625 352.15625 324.792969 350.015625 324.921875 C 321.65625 326.636719 302.921875 327.78125 290.046875 349.980469 C 284.480469 359.574219 280.027344 366.851562 276.605469 372.25 C 277.121094 372.308594 272.886719 377.113281 277.371094 378.675781 C 279.578125 379.453125 296.710938 377.0625 296.710938 377.0625 C 296.746094 377.050781 296.789062 377.046875 296.816406 377.046875 C 297.171875 377.011719 332.839844 373.757812 362.035156 368.851562 C 395.949219 363.164062 414.839844 354.449219 424.71875 348.148438 C 426.125 347.246094 427.441406 346.433594 428.683594 345.664062 C 438.8125 339.40625 440.917969 338.101562 440.664062 325.207031 Z M 440.660156 325.207031 "/>
</g>
</svg>
